<svg width="641" height="193" viewBox="0 0 641 193" fill="none" xmlns="http://www.w3.org/2000/svg">
<path fill-rule="evenodd" clip-rule="evenodd" d="M181.28 98.1541V122.579L92.8031 127.833C47.1244 131.917 10.9232 135.154 0.514046 182.99C-0.631653 188.256 4.08939 193 10.1192 193H630.564C636.594 193 641.315 188.256 640.169 182.99C629.76 135.154 593.559 131.917 547.88 127.833L459.404 122.579V98.1541C459.404 94.2308 456.48 90.8165 452.422 89.278C425.936 79.2363 377.047 68.8106 368.873 40.0281C362.603 17.949 351.453 0 320.342 0C289.231 0 278.081 17.949 271.81 40.0281C263.636 68.8106 214.747 79.2363 188.262 89.278C184.204 90.8165 181.28 94.2308 181.28 98.1541ZM320.342 66.0791C330.801 66.0791 339.28 57.3778 339.28 46.6441C339.28 35.9104 330.801 27.2091 320.342 27.2091C309.882 27.2091 301.403 35.9104 301.403 46.6441C301.403 57.3778 309.882 66.0791 320.342 66.0791Z" fill="#616161"/>
</svg>
